<svg id="Layer_1" data-name="Layer 1" xmlns="http://www.w3.org/2000/svg" viewBox="0 0 566.91 97.7"><defs><style>.cls-1{fill:#fff;}.cls-2{fill:#f2a900;}</style></defs><title>SM_Company_Logo_Wht</title><path class="cls-1" d="M105,32.62c-.6-7.41-3.61-13-11.12-13-6,0-9.92,4-9.92,9.52C84,45.44,113,45.64,113,68.89c0,11.52-6.61,18.44-18.54,18.44-11.32,0-18.14-8.32-18.34-20.44h7.21c.2,8.52,4.21,13.83,11.92,13.83,6.51,0,10.72-4.21,10.72-11.92,0-16.43-29.06-18.34-29.06-39C76.95,19.59,84,13,94.38,13s17.23,7,17.83,19.64Z"/><path class="cls-1" d="M156,14v6.61H141.17V86.32h-7.82V20.59H118.53V14Z"/><path class="cls-1" d="M164.93,14h17.43C194,14,202.2,20.79,202.2,32.72c0,8.12-3.61,14.93-11.62,17.73L202.8,86.32h-8.21L183,52.05l-10.22.4V86.32h-7.82Zm7.82,31.66h6.81c11.22,0,14.83-4.41,14.83-12.52s-3.61-12.52-14.83-12.52h-6.81Z"/><path class="cls-1" d="M231.46,87.32C219.24,87.32,211,77.1,211,50.15S219.24,13,231.46,13,251.9,23.2,251.9,50.15,243.68,87.32,231.46,87.32Zm0-67.73c-7,0-12.63,6-12.63,30.56s5.61,30.56,12.63,30.56,12.62-6,12.62-30.56S238.47,19.59,231.46,19.59Z"/><path class="cls-1" d="M275.15,14l18.64,53.3h.2V14h7.81V86.32h-8.42L270.94,23.4h-.2V86.32h-7.81V14Z"/><path class="cls-1" d="M343.79,36.22c-.6-9.42-3.41-16.63-11.32-16.63-8.72,0-12.93,7.82-12.93,30.56s4.21,30.56,12.93,30.56c7.31,0,11.32-4,11.32-11.42V59.07H334V52.46H351.6V86.32h-5l-1-5.41a15.48,15.48,0,0,1-13.12,6.41c-12.73,0-20.74-9.82-20.74-37.17S319.74,13,332.47,13c13.33,0,18.13,11.62,19.14,23.24Z"/><path class="cls-2" d="M413,14V86.32H402.21V29.81H402L390.78,86.32h-6L373.55,29.81h-.2V86.32H362.53V14h16.33l8.82,42.28h.2L396.69,14Z"/><path class="cls-2" d="M425.06,86.32V14h12.42V86.32Z"/><path class="cls-2" d="M449.5,86.32V14H461l15.13,41.38h.2V14h11.22V86.32H476.76L460.93,41.13h-.2V86.32Z"/><path class="cls-2" d="M499.61,14H518c12.82,0,19.64,7,19.64,21.84V64.48c0,14.83-6.81,21.84-19.64,21.84H499.61ZM512,76.1h4.31c6.61,0,8.92-2.51,8.92-10.12V34.32c0-7.61-2.3-10.12-8.92-10.12H512Z"/><polygon class="cls-1" points="39.86 33.5 31.53 34.84 29.5 13.27 19.11 41.09 27.63 39.67 29.52 61.26 39.86 33.5"/><rect class="cls-1" x="15.44" y="81.02" width="28.4" height="5.6"/><path class="cls-1" d="M39.32,90.11H20v2.7h0s0,.07,0,.1a2.8,2.8,0,0,0,2.8,2.8H36.52a2.8,2.8,0,0,0,2.8-2.8s0-.07,0-.1h0Z"/><rect class="cls-1" x="15.44" y="71.93" width="28.4" height="5.6"/><path class="cls-2" d="M52.78,13.28C48.8,7.58,43.12,4.35,36.47,3a36.1,36.1,0,0,0-6.84-.79A36.1,36.1,0,0,0,22.78,3C16.12,4.35,10.45,7.58,6.47,13.28.94,21.19.36,29.9,3.08,39c1.45,4.84,4.06,9.11,6.57,13.42,2,3.38,4,6.73,5.14,10.52a16.92,16.92,0,0,1,.65,4.88H22.3a27.11,27.11,0,0,0-2.2-10C17.9,53.36,15.44,49,13,44.64c-2.3-4.17-4.33-8.44-4.66-13.3C7.89,24.17,10,18,15.76,13.55A21.64,21.64,0,0,1,29.62,9a21.64,21.64,0,0,1,13.86,4.53c5.8,4.45,7.87,10.62,7.38,17.8-.33,4.86-2.36,9.13-4.66,13.3C43.8,49,41.34,53.36,39.14,57.83a27.11,27.11,0,0,0-2.2,10H43.8a16.92,16.92,0,0,1,.65-4.88c1.11-3.79,3.17-7.14,5.14-10.52,2.51-4.31,5.13-8.59,6.57-13.42C58.88,29.9,58.3,21.19,52.78,13.28Z"/><path class="cls-1" d="M550.28,16.12a2,2,0,0,0-.9-.79,2.86,2.86,0,0,0-1.17-.25,3.49,3.49,0,0,0-.88.11,2.6,2.6,0,0,0-.78.34,1.68,1.68,0,0,0-.55.59,1.73,1.73,0,0,0-.21.86,1.8,1.8,0,0,0,.12.68,1.43,1.43,0,0,0,.39.54,2.89,2.89,0,0,0,.74.45,10.19,10.19,0,0,0,1.14.42q.65.21,1.27.45a4.3,4.3,0,0,1,1.09.61,2.7,2.7,0,0,1,.75.92,3.47,3.47,0,0,1-.06,2.86,3.1,3.1,0,0,1-.89,1,3.85,3.85,0,0,1-1.27.61,5.54,5.54,0,0,1-1.49.2,5.73,5.73,0,0,1-1-.09,4.82,4.82,0,0,1-1-.27,3.85,3.85,0,0,1-.86-.48,2.89,2.89,0,0,1-.69-.73l1.15-.94a2.37,2.37,0,0,0,1,.94,3.13,3.13,0,0,0,2.26.19,2.65,2.65,0,0,0,.79-.38,2.05,2.05,0,0,0,.58-.62,1.6,1.6,0,0,0,.22-.85,1.81,1.81,0,0,0-.18-.86,1.58,1.58,0,0,0-.54-.57,4.21,4.21,0,0,0-.93-.43l-1.31-.45a8.3,8.3,0,0,1-1.12-.44,3.46,3.46,0,0,1-.89-.61,2.59,2.59,0,0,1-.59-.86,3.4,3.4,0,0,1,.1-2.63,3,3,0,0,1,.86-1,3.94,3.94,0,0,1,1.23-.62,5.21,5.21,0,0,1,3.19.09,3.43,3.43,0,0,1,1.42,1Z"/><path class="cls-1" d="M553.16,14.12h2L559,23h0l3.87-8.88h2V25.45h-1.34v-9.5h0l-4.06,9.5h-.82l-4.06-9.5h0v9.5h-1.34Z"/></svg>