<?xml version="1.0" encoding="UTF-8" standalone="no"?>
<svg
   xmlns:dc="http://purl.org/dc/elements/1.1/"
   xmlns:cc="http://creativecommons.org/ns#"
   xmlns:rdf="http://www.w3.org/1999/02/22-rdf-syntax-ns#"
   xmlns:svg="http://www.w3.org/2000/svg"
   xmlns="http://www.w3.org/2000/svg"
   xmlns:sodipodi="http://sodipodi.sourceforge.net/DTD/sodipodi-0.dtd"
   xmlns:inkscape="http://www.inkscape.org/namespaces/inkscape"
   width="1000"
   height="100"
   viewBox="0 0 1000 100"
   id="svg2"
   version="1.1">
  <g
     id="layer1"
     transform="translate(0,-942.36218)">
    <g
       id="g4517"
       transform="matrix(11.111111,0,0,11.111111,0,-10650.551)">
      <path
         inkscape:connector-curvature="0"
         d="m 36.334773,1047.1767 c 0.666066,0.5087 1.407052,0.9125 2.126623,1.3395 1.151214,0.6569 2.320046,1.2821 3.494621,1.8962 0.504952,0.2938 1.051792,0.4945 1.596261,0.6983 0.0414,0.015 0.08281,0.029 0.124208,0.044 0,0 -0.953598,0.6398 -0.953598,0.6398 v 0 c -0.03907,-0.017 -0.07815,-0.034 -0.11722,-0.05 -0.517846,-0.2278 -1.031896,-0.4653 -1.510363,-0.7704 -1.141701,-0.6624 -2.302335,-1.291 -3.463596,-1.9183 -0.759459,-0.4174 -1.523408,-0.8264 -2.279686,-1.2496 0,0 0.98275,-0.6292 0.98275,-0.6292 z"
         id="path4136"
         style="opacity:1;fill:none;fill-opacity:1;stroke:none;stroke-width:4;stroke-linecap:butt;stroke-linejoin:round;stroke-miterlimit:0;stroke-dasharray:none;stroke-opacity:1" />
      <path
         inkscape:connector-curvature="0"
         id="path4138"
         d="m 0,1052.3622 h 10 v -9 H 6 v 6 H 4 v -6 H 1 v 1 H 0 Z"
         style="fill:#ffffff;fill-opacity:1;fill-rule:evenodd;stroke:none;stroke-width:1px;stroke-linecap:butt;stroke-linejoin:miter;stroke-opacity:1" />
      <rect
         y="1043.3622"
         x="0"
         height="1"
         width="1"
         id="rect4140"
         style="opacity:1;fill:#ffffff;fill-opacity:0.498039;stroke:none;stroke-width:4;stroke-linecap:butt;stroke-linejoin:round;stroke-miterlimit:0;stroke-dasharray:none;stroke-opacity:1" />
      <rect
         y="1048.3622"
         x="5"
         height="1"
         width="1"
         id="rect4140-0"
         style="opacity:1;fill:#ffffff;fill-opacity:0.498039;stroke:none;stroke-width:4;stroke-linecap:butt;stroke-linejoin:round;stroke-miterlimit:0;stroke-dasharray:none;stroke-opacity:1" />
      <path
         inkscape:connector-curvature="0"
         id="path4203"
         d="m 11,1052.3622 v -9 h 4 v 2 h 1 v 2 h 1 v -4 h 4 v 9 h -4.000004 v -1 h -1 v -1 h -1 l 4e-6,-1 h -1 v -2 h -1 v 5 z"
         style="fill:#ffffff;fill-opacity:1;fill-rule:evenodd;stroke:none;stroke-width:1px;stroke-linecap:butt;stroke-linejoin:miter;stroke-opacity:1" />
      <rect
         y="1051.3622"
         x="16"
         height="1"
         width="1"
         id="rect4140-0-7"
         style="opacity:1;fill:#ffffff;fill-opacity:0.498039;stroke:none;stroke-width:4;stroke-linecap:butt;stroke-linejoin:round;stroke-miterlimit:0;stroke-dasharray:none;stroke-opacity:1" />
      <rect
         y="1047.3622"
         x="13"
         height="1"
         width="1"
         id="rect4140-0-7-2"
         style="opacity:1;fill:#ffffff;fill-opacity:0.498039;stroke:none;stroke-width:4;stroke-linecap:butt;stroke-linejoin:round;stroke-miterlimit:0;stroke-dasharray:none;stroke-opacity:1" />
      <rect
         y="1044.3622"
         x="15"
         height="1"
         width="1"
         id="rect4140-0-7-4"
         style="opacity:1;fill:#ffffff;fill-opacity:0.498039;stroke:none;stroke-width:4;stroke-linecap:butt;stroke-linejoin:round;stroke-miterlimit:0;stroke-dasharray:none;stroke-opacity:1" />
      <path
         inkscape:connector-curvature="0"
         id="path4250"
         transform="translate(0,1043.3622)"
         d="m 23,0 v 1 h -1 v 8 h 8 V 8 h 1 V 1 H 30 V 0 Z m 3,2 v 1 h 1 V 6 H 26 V 7 H 25 V 2 Z"
         style="fill:#ffffff;fill-opacity:1;fill-rule:evenodd;stroke:none" />
      <rect
         y="1048.3622"
         x="26"
         height="1"
         width="1"
         id="rect4140-0-7-4-8"
         style="opacity:1;fill:#ffffff;fill-opacity:0.498039;stroke:none;stroke-width:4;stroke-linecap:butt;stroke-linejoin:round;stroke-miterlimit:0;stroke-dasharray:none;stroke-opacity:1" />
      <rect
         y="1045.3622"
         x="25"
         height="1"
         width="1"
         id="rect4140-0-7-4-2"
         style="opacity:1;fill:#ffffff;fill-opacity:0.498039;stroke:none;stroke-width:4;stroke-linecap:butt;stroke-linejoin:round;stroke-miterlimit:0;stroke-dasharray:none;stroke-opacity:1" />
      <rect
         y="1043.3622"
         x="22"
         height="1"
         width="1"
         id="rect4140-0-7-4-7"
         style="opacity:1;fill:#ffffff;fill-opacity:0.498039;stroke:none;stroke-width:4;stroke-linecap:butt;stroke-linejoin:round;stroke-miterlimit:0;stroke-dasharray:none;stroke-opacity:1" />
      <path
         inkscape:connector-curvature="0"
         id="path4282"
         d="m 32,1052.3622 v -8 h 1 v -1 h 7 v 3 h -4 v 1 h 3 v 1 h -3 v 1 h 4 v 2.9995 z"
         style="fill:#ffffff;fill-opacity:1;fill-rule:evenodd;stroke:none;stroke-width:1px;stroke-linecap:butt;stroke-linejoin:miter;stroke-opacity:1" />
      <rect
         y="1043.3622"
         x="32"
         height="1"
         width="1"
         id="rect4140-0-7-4-8-7"
         style="opacity:1;fill:#ffffff;fill-opacity:0.498039;stroke:none;stroke-width:4;stroke-linecap:butt;stroke-linejoin:round;stroke-miterlimit:0;stroke-dasharray:none;stroke-opacity:1" />
      <rect
         y="1047.3622"
         x="39"
         height="1"
         width="1"
         id="rect4140-0-7-4-8-7-8"
         style="opacity:1;fill:#ffffff;fill-opacity:0.498039;stroke:none;stroke-width:4;stroke-linecap:butt;stroke-linejoin:round;stroke-miterlimit:0;stroke-dasharray:none;stroke-opacity:1" />
      <path
         inkscape:connector-curvature="0"
         id="path4331"
         d="m 41,1052.3622 v -9 h 9 v 1 h 1 v 5 h -3 v 1 h 3 v 2 h -4 v -1 h -2 v -1 h -1 v 2 z"
         style="fill:#ffffff;fill-opacity:1;fill-rule:evenodd;stroke:none;stroke-width:1px;stroke-linecap:butt;stroke-linejoin:miter;stroke-opacity:1" />
      <rect
         y="1043.3622"
         x="50"
         height="1"
         width="1"
         id="rect4140-0-7-4-8-7-8-2"
         style="opacity:1;fill:#ffffff;fill-opacity:0.498039;stroke:none;stroke-width:4;stroke-linecap:butt;stroke-linejoin:round;stroke-miterlimit:0;stroke-dasharray:none;stroke-opacity:1" />
      <rect
         y="1049.3622"
         x="48"
         height="1"
         width="1"
         id="rect4140-0-7-4-8-7-8-6"
         style="opacity:1;fill:#ffffff;fill-opacity:0.498039;stroke:none;stroke-width:4;stroke-linecap:butt;stroke-linejoin:round;stroke-miterlimit:0;stroke-dasharray:none;stroke-opacity:1" />
      <rect
         y="1050.3622"
         x="44"
         height="1"
         width="1"
         id="rect4140-0-7-4-8-7-8-27"
         style="opacity:1;fill:#ffffff;fill-opacity:0.498039;stroke:none;stroke-width:4;stroke-linecap:butt;stroke-linejoin:round;stroke-miterlimit:0;stroke-dasharray:none;stroke-opacity:1" />
      <path
         inkscape:connector-curvature="0"
         id="path4390"
         d="m 45,1047.3622 v -2 h 1 v 1 h 1 v -1 h 1 v 2 h -1 v 1 h -1 v -1 z"
         style="fill:#f52026;fill-opacity:1;fill-rule:evenodd;stroke:none;stroke-width:1px;stroke-linecap:butt;stroke-linejoin:miter;stroke-opacity:1" />
      <path
         inkscape:connector-curvature="0"
         id="path4392"
         d="m 55,1052.3622 v -5 h -3 v -3 h 1 v -1 h 9 v 4 h -3 v 5 z"
         style="fill:#ffffff;fill-opacity:1;fill-rule:evenodd;stroke:none;stroke-width:1px;stroke-linecap:butt;stroke-linejoin:miter;stroke-opacity:1" />
      <rect
         y="1043.3622"
         x="52"
         height="1"
         width="1"
         id="rect4140-0-7-4-8-7-8-2-3"
         style="opacity:1;fill:#ffffff;fill-opacity:0.498039;stroke:none;stroke-width:4;stroke-linecap:butt;stroke-linejoin:round;stroke-miterlimit:0;stroke-dasharray:none;stroke-opacity:1" />
      <path
         inkscape:connector-curvature="0"
         id="rect4409"
         transform="translate(0,1043.3622)"
         d="m 64,0 v 1 h -1 v 8 h 3 V 6 h 3 v 3 h 3 V 0 Z m 2,4 h 3 v 1 h -3 z"
         style="opacity:1;fill:#ffffff;fill-opacity:1;stroke:none" />
      <rect
         y="1043.3622"
         x="63"
         height="1"
         width="1"
         id="rect4140-0-7-4-8-7-8-2-3-8"
         style="opacity:1;fill:#ffffff;fill-opacity:0.498039;stroke:none;stroke-width:4;stroke-linecap:butt;stroke-linejoin:round;stroke-miterlimit:0;stroke-dasharray:none;stroke-opacity:1" />
      <rect
         y="1047.3622"
         x="66"
         height="1"
         width="1"
         id="rect4140-0-7-4-8-7-8-2-3-3"
         style="opacity:1;fill:#ffffff;fill-opacity:0.498039;stroke:none;stroke-width:4;stroke-linecap:butt;stroke-linejoin:round;stroke-miterlimit:0;stroke-dasharray:none;stroke-opacity:1" />
      <rect
         y="1049.3622"
         x="68"
         height="1"
         width="1"
         id="rect4140-0-7-4-8-7-8-2-3-3-7"
         style="opacity:1;fill:#ffffff;fill-opacity:0.498039;stroke:none;stroke-width:4;stroke-linecap:butt;stroke-linejoin:round;stroke-miterlimit:0;stroke-dasharray:none;stroke-opacity:1" />
      <path
         inkscape:connector-curvature="0"
         id="rect4471"
         transform="translate(0,1043.3622)"
         d="m 74,0 v 1 h -1 v 8 h 8 V 6 H 77 V 0 Z"
         style="opacity:1;fill:#ffffff;fill-opacity:1;stroke:none" />
      <rect
         y="1043.3622"
         x="73"
         height="1"
         width="1"
         id="rect4140-0-7-4-8-7-8-2-3-3-7-5"
         style="opacity:1;fill:#ffffff;fill-opacity:0.498039;stroke:none;stroke-width:4;stroke-linecap:butt;stroke-linejoin:round;stroke-miterlimit:0;stroke-dasharray:none;stroke-opacity:1" />
      <path
         inkscape:connector-curvature="0"
         id="path4282-4"
         d="m 82.000002,1052.3622 v -8 h 1 v -1 h 7 v 3 h -4 v 1 h 3 v 1 h -3 v 1 h 4 v 2.9995 z"
         style="fill:#ffffff;fill-opacity:1;fill-rule:evenodd;stroke:none;stroke-width:1px;stroke-linecap:butt;stroke-linejoin:miter;stroke-opacity:1" />
      <rect
         y="1043.3623"
         x="82"
         height="1"
         width="1"
         id="rect4140-0-7-4-8-7-7"
         style="opacity:1;fill:#ffffff;fill-opacity:0.498039;stroke:none;stroke-width:4;stroke-linecap:butt;stroke-linejoin:round;stroke-miterlimit:0;stroke-dasharray:none;stroke-opacity:1" />
      <rect
         y="1047.3623"
         x="89"
         height="1"
         width="1"
         id="rect4140-0-7-4-8-7-8-0"
         style="opacity:1;fill:#ffffff;fill-opacity:0.498039;stroke:none;stroke-width:4;stroke-linecap:butt;stroke-linejoin:round;stroke-miterlimit:0;stroke-dasharray:none;stroke-opacity:1" />
    </g>
  </g>
</svg>
